#define Arrow4-UD.xbm_width 11
#define Arrow4-UD.xbm_height 17
#define Arrow4-UD.xbm_x_hot 5
#define Arrow4-UD.xbm_y_hot 8
static unsigned char Arrow4-UD.xbm_bits[] = {
   0xdf, 0x07, 0xaf, 0x07, 0x77, 0x07, 0xfb, 0x06, 0xfd, 0x05, 0xfe, 0x03,
   0x71, 0x04, 0x77, 0x07, 0x77, 0x07, 0x77, 0x07, 0x71, 0x04, 0xfe, 0x03,
   0xfd, 0x05, 0xfb, 0x06, 0x77, 0x07, 0xaf, 0x07, 0xdf, 0x07};
