#define Arrow4-Diag_m.xbm_width 12
#define Arrow4-Diag_m.xbm_height 12
#define Arrow4-Diag_m.xbm_x_hot 6
#define Arrow4-Diag_m.xbm_y_hot 6
static unsigned char Arrow4-Diag_m.xbm_bits[] = {
   0xff, 0x00, 0xff, 0x00, 0x7f, 0x00, 0x7f, 0x00, 0xff, 0x0c, 0xff, 0x0f,
   0xf7, 0x0f, 0xe3, 0x0f, 0xc0, 0x0f, 0xe0, 0x0f, 0xf0, 0x0f, 0xf0, 0x0f};
