#define Arrow4-UD_m.xbm_width 11
#define Arrow4-UD_m.xbm_height 17
#define Arrow4-UD_m.xbm_x_hot 5
#define Arrow4-UD_m.xbm_y_hot 8
static unsigned char Arrow4-UD_m.xbm_bits[] = {
   0x20, 0x00, 0x70, 0x00, 0xf8, 0x00, 0xfc, 0x01, 0xfe, 0x03, 0xff, 0x07,
   0xfe, 0x03, 0xf8, 0x00, 0xf8, 0x00, 0xf8, 0x00, 0xfe, 0x03, 0xff, 0x07,
   0xfe, 0x03, 0xfc, 0x01, 0xf8, 0x00, 0x70, 0x00, 0x20, 0x00};
