#define Arrow4-Diag2.xbm_width 12
#define Arrow4-Diag2.xbm_height 12
#define Arrow4-Diag2.xbm_x_hot 6
#define Arrow4-Diag2.xbm_y_hot 6
static unsigned char Arrow4-Diag2.xbm_bits[] = {
   0x0f, 0x00, 0xef, 0x07, 0xdf, 0x07, 0xdf, 0x07, 0xec, 0x07, 0xf2, 0x06,
   0x7e, 0x05, 0xbe, 0x03, 0xde, 0x0f, 0xbe, 0x0f, 0x7e, 0x0f, 0x00, 0x0f};
