#define Arrow4-Diag.xbm_width 12
#define Arrow4-Diag.xbm_height 12
#define Arrow4-Diag.xbm_x_hot 6
#define Arrow4-Diag.xbm_y_hot 6
static unsigned char Arrow4-Diag.xbm_bits[] = {
   0x00, 0x0f, 0x7e, 0x0f, 0xbe, 0x0f, 0xbe, 0x0f, 0x7e, 0x03, 0xf6, 0x04,
   0xea, 0x07, 0xdc, 0x07, 0xbf, 0x07, 0xdf, 0x07, 0xef, 0x07, 0x0f, 0x00};
