#define Arrow4-LR.xbm_width 17
#define Arrow4-LR.xbm_height 11
#define Arrow4-LR.xbm_x_hot 8
#define Arrow4-LR.xbm_y_hot 5
static unsigned char Arrow4-LR.xbm_bits[] = {
   0xdf, 0xf7, 0x01, 0xaf, 0xeb, 0x01, 0xb7, 0xdb, 0x01, 0x3b, 0xb8, 0x01,
   0xfd, 0x7f, 0x01, 0xfe, 0xff, 0x00, 0xfd, 0x7f, 0x01, 0x3b, 0xb8, 0x01,
   0xb7, 0xdb, 0x01, 0xaf, 0xeb, 0x01, 0xdf, 0xf7, 0x01};
