#define Arrow4-LR_m.xbm_width 17
#define Arrow4-LR_m.xbm_height 11
#define Arrow4-LR_m.xbm_x_hot 8
#define Arrow4-LR_m.xbm_y_hot 5
static unsigned char Arrow4-LR_m.xbm_bits[] = {
   0x20, 0x08, 0x00, 0x70, 0x1c, 0x00, 0x78, 0x3c, 0x00, 0xfc, 0x7f, 0x00,
   0xfe, 0xff, 0x00, 0xff, 0xff, 0x01, 0xfe, 0xff, 0x00, 0xfc, 0x7f, 0x00,
   0x78, 0x3c, 0x00, 0x70, 0x1c, 0x00, 0x20, 0x08, 0x00};
