#define Arrow4-Diag2_m.xbm_width 12
#define Arrow4-Diag2_m.xbm_height 12
#define Arrow4-Diag2_m.xbm_x_hot 6
#define Arrow4-Diag2_m.xbm_y_hot 6
static unsigned char Arrow4-Diag2_m.xbm_bits[] = {
   0xf0, 0x0f, 0xf0, 0x0f, 0xe0, 0x0f, 0xe0, 0x0f, 0xf3, 0x0f, 0xff, 0x0f,
   0xff, 0x0e, 0x7f, 0x0c, 0x3f, 0x00, 0x7f, 0x00, 0xff, 0x00, 0xff, 0x00};
