/* XPM */
static char * CenterPoint_xpm[] = {
/* width height ncolors cpp [x_hot y_hot] */
"21 21 2 1 0 0",
/* colors */
" 	s none	m none	c none",
".	s iconGray1	m white	c #dededededede",
/* pixels */
"          .          ",
"         ...         ",
"        .....        ",
"       .......       ",
"      ...   ...      ",
"                     ",
"    .    ...    .    ",
"   ..   .....   ..   ",
"  ...  .......  ...  ",
" ...  .........  ... ",
"....  .........  ....",
" ...  .........  ... ",
"  ...  .......  ...  ",
"   ..   .....   ..   ",
"    .    ...    .    ",
"                     ",
"      ...   ...      ",
"       .......       ",
"        .....        ",
"         ...         ",
"          .          "};
