/* XPM */
static char * NoImageFound_xpm[] = {
"140 20 11 1",
" 	c None",
".	c #3D67A5",
"+	c #5278AF",
"@	c #7E9AC3",
"#	c #6888B9",
"$	c #93AACD",
"%	c #E9EEF5",
"&	c #FFFFFF",
"*	c #BECCE1",
"=	c #D4DDEB",
"-	c #A8BBD7",
"............................................................................................................................................",
"............................................................................................................................................",
"............................................................................................................................................",
".............................................................................................................................+@#............",
"......$%&%+...*&&%$.............*%&&*#............................................$=&&=**&&&................................$*&*............",
".......+&&*....@&#...............@&$................................................=&....*&..................................&*............",
"........&%&$....&................@&@................................................*&.....&..................................&*............",
"........&+&&#...&................@&@................................................*&..@@.*..................................&*............",
"........&.@&%+..&....-==-........@&@..***@-%-.$*%@...+***%-...+*==--%-.+=*%-........*&..=@.#+.+=*=@..***.#**$.#**$-*&-....-%*@&*............",
"........&..*&*..&...*=..=-.......@&@...*&$.#&=+.-&+..%=..$&#..==..-&@++%$..%$.......*&*%&@...+%$.+&#..=&...&*...&&@.@&$..*%+.-&*............",
"........&...%&$.&..+&$..$&+......@&@...*&+..&=..@&@..*%..@&@..&*..@&@.-&...*%.......*&.#%@...$&+..==..*&...&*...&*...&*.+&-..+&*............",
"........&...+&&#&..@&@..@&@......@&@...*&...&*..@&@...+$*%&@..%=..$&+.*&***%&.......*&..-@...*&...*&..*&...&*...&*...&*.@&@...&*............",
"........&....@&%&..@&@..@&@......@&@...*&...&*..@&@..-%#.@&@..+&$$%@..*&............*&..++...*&...*&..*&...&*...&*...&*.@&@...&*............",
"........&.....*&&..+&$..$&+......@&@...*&...&*..@&@.#&@..@&@.+=@@#....-&+...@.......*&.......$&+..==..*&...&*...&*...&*.+&$..+&*............",
".......$&-.....%&...-=..=-.......$&$...*&...&*..@&@.#&$.+=&@+@%-@@@#..+&*..@-.......=&+.......%$.+&#..-&+.-&=...&*...&*..*%..-&=............",
"......$****....#&....-==-.......*****#****#****$***$.-&*-+*%-.*&&&&&$..#==*-......$*****......+=*=@....*%*@***#***$#***$..-%*@***...........",
".............................................................@&+...$*.......................................................................",
".............................................................*&+...*$.......................................................................",
".............................................................+*%***$........................................................................",
"............................................................................................................................................"};
