/* XPM */
static char * SaveFile_xpm[] = {
"22 24 6 1",
" 	c None",
".	c #D6D6D6",
"+	c #000000",
"@	c #BDBDBD",
"#	c #FFFFFF",
"$	c #5D6069",
"......................",
"......................",
"......................",
"......................",
"....++++++++++++++....",
"....+@+########+#+....",
"....+@+########+++$...",
"....+@+########+@+$...",
"....+@+########+@+$...",
"....+@+########+@+$...",
"....+@+########+@+$...",
"....+@@++++++++@@+$...",
"....+@@@@@@@@@@@@+$...",
"....+@@+++++++++@+$...",
"....+@@++++++##+@+$...",
"....+@@++++++##+@+$...",
"....+@@++++++##+@+$...",
".....+++++++++++++$...",
"......$$$$$$$$$$$$$...",
"......................",
"......................",
"......................",
"......................",
"......................"};
